<svg width="44" height="48" viewBox="0 0 44 48" fill="none" xmlns="http://www.w3.org/2000/svg">
<path d="M11.8322 4.48539L16.9807 23.6998V2.57508C17.389 2.47981 17.8016 2.39591 18.2182 2.32373V23.7018L24.009 2.09045C24.4263 2.12823 24.8402 2.17767 25.2505 2.23842L19.4131 24.0238L31.0163 3.92649C31.3943 4.09654 31.7666 4.27696 32.1329 4.46738L20.4865 24.6397L37.1133 8.01286C37.4131 8.29633 37.7048 8.58815 37.9883 8.88794L21.359 25.5172L41.5337 13.8693C41.7241 14.2357 41.9045 14.608 42.0745 14.9861L21.9821 26.5864L43.7616 20.7506C43.8223 21.1609 43.8717 21.5748 43.9095 21.9921L22.2984 27.7828L43.6759 27.7828C43.6037 28.1994 43.5198 28.6121 43.4245 29.0203L22.2951 29.0203L41.5133 34.1698C41.3159 34.5477 41.1079 34.9192 40.8896 35.2838L21.9803 30.2171L37.7739 39.3355C37.4749 39.643 37.167 39.9418 36.8506 40.2314L21.3629 31.2896L33.0822 43.0089C32.7115 43.2255 32.3339 43.4315 31.9498 43.6266L20.4866 32.1634L27.9974 45.1725C27.5862 45.2888 27.1701 45.3934 26.7495 45.4859L19.4138 32.7802L22.9506 45.9798C22.6354 45.9932 22.3184 45.9999 21.9999 45.9999C21.8911 45.9999 21.7826 45.9992 21.6742 45.9976L18.2182 33.0995V45.6762C17.8016 45.604 17.389 45.5201 16.9807 45.4248V33.1016L13.9334 44.4741C13.5448 44.3209 13.1615 44.1569 12.784 43.9825L15.7849 32.783L10.1516 42.5401C9.80287 42.3168 9.46083 42.0839 9.12588 41.8418L14.7149 32.1613L6.88786 39.9884C6.58808 39.7049 6.29626 39.4131 6.01278 39.1134L13.8373 31.2888L4.15967 36.8762C3.91751 36.5413 3.68456 36.1993 3.46117 35.8505L13.2229 30.2146L2.01788 33.217C1.84348 32.8395 1.67945 32.4562 1.52617 32.0676L12.8987 29.0203L0.575287 29.0203C0.479997 28.6121 0.396075 28.1994 0.323872 27.7828L12.8954 27.7828L0.00227558 24.3281C0.000678993 24.2189 -0.00012207 24.1095 -0.00012207 23.9999C-0.00012207 23.6822 0.00661242 23.3661 0.0199464 23.0517L13.2211 26.5889L0.5135 19.2522C0.60603 18.8315 0.710598 18.4154 0.826825 18.0041L13.8413 25.518L2.37322 14.05C2.56832 13.6659 2.77437 13.2883 2.99095 12.9176L14.715 24.6417L5.76964 9.14783C6.0593 8.83147 6.35809 8.5236 6.66558 8.22465L15.7857 24.0211L10.7182 5.10892C11.0828 4.89069 11.4543 4.68271 11.8322 4.48539Z" fill="#6927DA"/>
</svg>